<svg xmlns="http://www.w3.org/2000/svg" width="384" viewBox="0 0 384 384" height="384" version="1.0"><defs><clipPath id="a"><path d="M 233 59.695312 L 305 59.695312 L 305 129 L 233 129 Z M 233 59.695312"/></clipPath><clipPath id="b"><path d="M 2 201 L 258 201 L 258 324.445312 L 2 324.445312 Z M 2 201"/></clipPath></defs><path fill="#EF476F" d="M 271.847656 121.878906 C 271.625 121.316406 272.582031 120.363281 274.265625 118.871094 C 275.953125 117.378906 278.375 115.308594 280.8125 112.328125 C 282.722656 109.972656 284.632812 106.992188 286.023438 103.457031 C 287.410156 99.921875 288.285156 95.824219 287.90625 91.613281 C 287.636719 88.246094 286.648438 84.746094 284.8125 81.679688 C 283.125 78.847656 280.695312 76.285156 277.761719 74.5625 C 276.148438 73.59375 274.328125 72.871094 272.40625 72.425781 C 269.1875 71.679688 265.828125 71.742188 262.855469 72.582031 C 260.257812 73.289062 257.835938 74.617188 255.792969 76.289062 C 253.75 77.960938 252.085938 79.976562 250.929688 82.125 C 249.511719 84.707031 248.773438 87.585938 248.566406 90.339844 C 248.359375 93.089844 248.6875 95.722656 249.375 98.027344 C 250.109375 100.519531 251.273438 102.695312 252.507812 104.496094 C 253.746094 106.296875 255.054688 107.734375 256.203125 108.875 C 257.347656 110.015625 258.328125 110.871094 258.984375 111.542969 C 259.636719 112.214844 259.960938 112.710938 259.832031 113.0625 C 259.703125 113.414062 259.121094 113.605469 258.105469 113.546875 C 257.089844 113.492188 255.640625 113.179688 253.882812 112.421875 C 252.125 111.664062 250.0625 110.453125 247.988281 108.589844 C 245.910156 106.730469 243.820312 104.210938 242.210938 100.933594 C 240.734375 97.894531 239.722656 94.269531 239.550781 90.292969 C 239.378906 86.316406 240.046875 81.984375 241.898438 77.773438 C 243.449219 74.292969 245.769531 71.011719 248.78125 68.265625 C 251.796875 65.515625 255.503906 63.296875 259.71875 61.984375 C 264.554688 60.507812 269.84375 60.300781 274.953125 61.496094 C 278.003906 62.210938 280.914062 63.40625 283.550781 65.023438 C 288.226562 67.921875 291.84375 71.972656 294.21875 76.449219 C 296.773438 81.285156 297.882812 86.464844 297.859375 91.316406 C 297.792969 97.433594 296.042969 102.820312 293.648438 107.136719 C 291.253906 111.453125 288.222656 114.710938 285.308594 117.003906 C 283.480469 118.441406 281.707031 119.519531 280.101562 120.316406 C 278.496094 121.113281 277.058594 121.628906 275.863281 121.945312 C 273.472656 122.574219 272.066406 122.4375 271.847656 121.878906 Z M 271.847656 121.878906"/><g clip-path="url(#a)"><path transform="matrix(1.12123 0 0 1.12182 -112.577 -791.903)" fill="none" d="M 342.860627 814.551604 C 342.662044 814.050188 343.515602 813.200566 345.017167 811.870419 C 346.522216 810.540272 348.68224 808.694781 350.856199 806.03797 C 352.559831 803.938289 354.263463 801.281477 355.503735 798.130214 C 356.740523 794.978951 357.520918 791.326271 357.182979 787.572611 C 356.942589 784.571076 356.06116 781.451151 354.423723 778.717735 C 352.918674 776.193242 350.751682 773.909011 348.135266 772.373423 C 346.696411 771.509873 345.072909 770.865692 343.358826 770.468737 C 340.488084 769.803664 337.491922 769.859377 334.840667 770.60802 C 332.523867 771.238272 330.363843 772.422172 328.541758 773.912494 C 326.719673 775.402815 325.235528 777.199557 324.204291 779.11469 C 322.939631 781.416331 322.281173 783.982608 322.096525 786.43746 C 321.911878 788.888829 322.204527 791.235737 322.817695 793.290152 C 323.47267 795.511706 324.510875 797.451213 325.61179 799.056442 C 326.71619 800.661671 327.883299 801.943069 328.907569 802.95983 C 329.928354 803.976591 330.802816 804.739162 331.388112 805.338076 C 331.969925 805.93699 332.25909 806.379212 332.144121 806.692597 C 332.029152 807.005983 331.510049 807.176603 330.604233 807.124373 C 329.698416 807.075624 328.405886 806.797059 326.838126 806.12154 C 325.270367 805.44602 323.430863 804.366582 321.580907 802.70564 C 319.727467 801.04818 317.863575 798.802251 316.428204 795.880804 C 315.111287 793.171762 314.208954 789.940411 314.055662 786.395675 C 313.90237 782.850939 314.498118 778.989336 316.149492 775.235676 C 317.532604 772.133161 319.602046 769.208232 322.28814 766.760344 C 324.977719 764.308975 328.283949 762.331165 332.043087 761.161193 C 336.356167 759.844975 341.073381 759.660426 345.630335 760.725936 C 348.351268 761.363153 350.946781 762.428663 353.29842 763.870235 C 357.46866 766.453923 360.69476 770.064818 362.812977 774.055258 C 365.091454 778.366047 366.080884 782.983257 366.059981 787.307975 C 366.000755 792.760879 364.439963 797.562638 362.304326 801.410314 C 360.16869 805.257989 357.465176 808.162026 354.866179 810.205995 C 353.23571 811.487392 351.654015 812.448441 350.222128 813.158781 C 348.790241 813.869121 347.508162 814.328753 346.442086 814.610799 C 344.309933 815.171411 343.055726 815.049539 342.860627 814.551604 Z M 342.860627 814.551604" stroke="#000"/></g><g clip-path="url(#b)"><path fill="#EF476F" d="M 14.761719 201.617188 C 14.980469 201.765625 14.835938 202.433594 14.410156 203.601562 C 13.984375 204.765625 13.285156 206.433594 12.484375 208.621094 C 11.683594 210.804688 10.785156 213.515625 10.019531 216.75 C 9.253906 219.984375 8.625 223.75 8.417969 227.960938 C 8.234375 231.714844 8.382812 235.835938 9.085938 240.167969 C 9.785156 244.503906 11.039062 249.050781 13.070312 253.539062 C 15.570312 259.144531 19.265625 264.671875 24.128906 269.714844 C 28.996094 274.753906 35.035156 279.3125 41.921875 282.867188 C 47.75 285.875 54.214844 288.167969 61.136719 289.695312 C 68.058594 291.222656 75.4375 291.988281 82.992188 292.011719 C 89.835938 292.027344 96.847656 291.402344 103.96875 290.265625 C 111.09375 289.128906 118.328125 287.476562 125.605469 285.484375 C 126.683594 285.1875 127.761719 284.886719 128.84375 284.574219 C 142.34375 280.691406 155.382812 275.921875 168.140625 271.523438 C 175.804688 268.820312 183.632812 266.273438 191.488281 264.59375 C 199.347656 262.917969 207.230469 262.109375 214.996094 262.617188 C 223.65625 263.222656 231.957031 265.730469 238.914062 269.972656 C 242.800781 272.339844 246.199219 275.289062 248.964844 278.585938 C 251.730469 281.882812 253.867188 285.527344 255.3125 289.328125 C 257.1875 294.296875 257.75 299.507812 257.074219 304.328125 C 256.691406 307.066406 255.875 309.640625 254.742188 311.953125 C 253.609375 314.265625 252.15625 316.316406 250.484375 318.042969 C 248.472656 320.121094 246.152344 321.65625 243.792969 322.683594 C 241.433594 323.707031 239.027344 324.222656 236.75 324.3125 C 233.546875 324.433594 230.707031 323.664062 228.445312 322.550781 C 226.1875 321.4375 224.496094 319.976562 223.3125 318.542969 C 221.714844 316.589844 221.046875 314.769531 220.773438 313.539062 C 220.503906 312.308594 220.609375 311.636719 220.855469 311.5625 C 221.101562 311.488281 221.492188 312.007812 222.167969 312.921875 C 222.847656 313.835938 223.839844 315.167969 225.433594 316.441406 C 226.597656 317.378906 228.109375 318.261719 229.96875 318.835938 C 231.828125 319.414062 234.046875 319.683594 236.324219 319.335938 C 237.96875 319.09375 239.671875 318.515625 241.304688 317.585938 C 242.941406 316.660156 244.511719 315.382812 245.816406 313.800781 C 246.914062 312.480469 247.832031 310.910156 248.515625 309.164062 C 249.203125 307.417969 249.652344 305.488281 249.8125 303.492188 C 250.097656 299.945312 249.382812 296.066406 247.777344 292.359375 C 246.550781 289.511719 244.742188 286.789062 242.445312 284.332031 C 240.144531 281.871094 237.351562 279.671875 234.234375 277.902344 C 228.597656 274.707031 221.699219 272.960938 214.394531 272.605469 C 207.804688 272.246094 200.949219 273.160156 193.839844 274.898438 C 186.726562 276.632812 179.363281 279.191406 171.773438 281.859375 C 159.167969 286.394531 145.972656 291.308594 131.941406 295.351562 C 130.820312 295.675781 129.695312 295.992188 128.574219 296.300781 C 120.972656 298.398438 113.308594 300.105469 105.667969 301.25 C 98.027344 302.398438 90.410156 302.980469 82.902344 302.878906 C 74.597656 302.777344 66.441406 301.761719 58.75 299.851562 C 51.058594 297.945312 43.832031 295.144531 37.289062 291.546875 C 29.511719 287.273438 22.832031 281.796875 17.539062 275.765625 C 12.25 269.734375 8.34375 263.148438 5.796875 256.550781 C 3.761719 251.203125 2.679688 245.929688 2.253906 241.003906 C 1.824219 236.074219 2.046875 231.488281 2.648438 227.386719 C 3.316406 222.78125 4.460938 218.773438 5.746094 215.421875 C 7.027344 212.070312 8.445312 209.363281 9.742188 207.273438 C 11.035156 205.183594 12.207031 203.703125 13.082031 202.777344 C 13.960938 201.847656 14.539062 201.46875 14.761719 201.617188 Z M 14.761719 201.617188" fill-rule="evenodd"/></g><path fill="#EF476F" d="M 97.25 218.78125 C 97.269531 218.058594 99.261719 217.417969 102.890625 216.941406 C 106.519531 216.464844 111.792969 216.160156 118.34375 216.207031 C 124.898438 216.253906 132.730469 216.65625 141.453125 217.597656 C 150.171875 218.535156 159.773438 220.015625 169.824219 222.152344 C 172.851562 222.765625 175.898438 223.441406 178.941406 224.101562 C 184.273438 225.257812 189.351562 226.289062 194.136719 226.824219 C 198.921875 227.363281 203.417969 227.398438 207.625 226.746094 C 210.824219 226.28125 213.859375 225.492188 216.578125 224.410156 C 219.292969 223.324219 221.691406 221.945312 223.710938 220.335938 C 226.414062 218.183594 228.53125 215.613281 229.988281 213.089844 C 231.445312 210.566406 232.25 208.078125 232.628906 205.867188 C 233.125 203.128906 233.035156 200.808594 232.996094 199.171875 C 232.957031 197.535156 232.984375 196.542969 233.429688 196.34375 C 233.871094 196.144531 234.71875 196.761719 235.679688 198.335938 C 236.636719 199.914062 237.707031 202.496094 237.984375 206.050781 C 238.1875 208.933594 237.835938 212.386719 236.519531 216.027344 C 235.207031 219.671875 232.921875 223.507812 229.511719 226.824219 C 227.011719 229.257812 224.011719 231.421875 220.605469 233.160156 C 217.199219 234.898438 213.386719 236.207031 209.359375 236.96875 C 204.125 237.925781 198.675781 238.121094 193.15625 237.730469 C 187.636719 237.335938 182.054688 236.359375 176.542969 235.15625 C 173.394531 234.472656 170.355469 233.738281 167.425781 233.035156 C 157.699219 230.808594 148.445312 228.964844 140.039062 227.441406 C 131.628906 225.914062 124.070312 224.703125 117.726562 223.675781 C 111.378906 222.648438 106.253906 221.804688 102.714844 221.015625 C 99.179688 220.230469 97.230469 219.5 97.25 218.78125 Z M 97.25 218.78125" fill-rule="evenodd"/><path transform="matrix(1.12123 0 0 1.12182 -112.577 -791.903)" fill="#EF476F" d="M 391.429811 870.929622 C 391.140646 871.114171 389.882955 869.721348 387.656737 867.00186 C 385.430519 864.285853 382.221838 860.239701 377.870435 855.246428 C 373.515548 850.256638 368.007486 844.319727 361.147668 837.937113 C 354.28785 831.554499 346.069308 824.726181 336.384039 818.07893 C 327.374648 811.894793 317.086663 805.863867 305.565374 800.560691 C 294.044085 795.257515 281.286008 790.685572 267.503661 787.492524 C 251.67626 783.839844 234.396068 781.963014 216.642065 782.857903 C 198.891545 783.74931 180.677666 787.415918 163.387022 794.815294 C 162.986373 794.989397 162.589207 795.1635 162.188557 795.341085 C 153.489235 799.195724 145.242821 803.910432 138.072935 809.499137 C 130.903049 815.087842 124.813175 821.554025 120.284092 828.880277 C 115.343908 836.788033 112.180518 845.566304 111.365284 854.28538 C 110.508242 863.464088 112.163099 872.653241 116.117336 880.258058 C 118.514266 884.930981 121.792625 889.053739 125.569183 892.490532 C 129.342257 895.923842 133.61353 898.667704 138.069451 900.63855 C 143.058409 902.856621 148.312145 904.117127 153.489235 904.594169 C 158.662841 905.067729 163.752833 904.757826 168.522305 903.824634 C 172.56364 903.020278 176.388973 901.784147 179.862431 900.1824 C 183.335889 898.580653 186.457472 896.616772 189.157502 894.367361 C 192.418441 891.651355 195.083632 888.520984 197.093848 885.282669 C 199.10058 882.047837 200.452337 878.70506 201.208345 875.463263 C 202.32668 870.765965 202.169904 866.291519 201.49751 862.499557 C 200.825115 858.707595 199.637102 855.580706 198.469992 853.150229 C 197.302882 850.716269 196.156676 848.95783 195.386732 847.756519 C 194.620272 846.551727 194.22659 845.890136 194.383366 845.736925 C 194.536658 845.580232 195.23344 845.938884 196.358743 846.910379 C 197.484046 847.881873 199.037869 849.476656 200.657887 851.886241 C 202.281389 854.299308 203.978053 857.541105 205.117292 861.670827 C 206.25653 865.800549 206.845311 870.832124 205.93601 876.396455 C 205.298455 880.202345 203.985021 884.171893 201.887707 888.050906 C 199.790394 891.92992 196.905717 895.721882 193.240644 899.047249 C 190.223578 901.787629 186.729217 904.221588 182.827238 906.230737 C 178.925259 908.243367 174.619147 909.834668 170.051741 910.893214 C 164.662133 912.157201 158.864907 912.710848 152.89697 912.338268 C 146.932517 911.96917 140.797352 910.673844 134.839867 908.236403 C 129.512969 906.049669 124.391622 902.940191 119.820732 898.949751 C 115.249843 894.962793 111.229411 890.098357 108.170538 884.460903 C 103.237322 875.27175 101.032008 864.383351 101.95176 853.453168 C 102.826221 843.111453 106.34497 832.860271 111.988903 823.72683 C 117.221736 815.335068 124.036263 807.967031 131.923834 801.69236 C 139.811406 795.41769 148.775505 790.239868 158.171609 786.169341 C 158.603614 785.984792 159.035619 785.800243 159.467624 785.619176 C 178.019443 777.753205 197.410884 773.912494 216.189157 773.104656 C 234.963946 772.293336 253.118599 774.504444 269.635814 778.655058 C 284.024361 782.258989 297.245798 787.325385 309.091091 793.157834 C 320.939867 798.990283 331.4125 805.592267 340.4846 812.340497 C 350.243031 819.593626 358.388412 827.020858 365.060099 833.964083 C 371.731786 840.907309 376.936747 847.366529 380.901436 852.833361 C 384.869609 858.296712 387.611446 862.767676 389.318562 865.880637 C 391.029161 868.993597 391.715491 870.748555 391.426327 870.933104 Z M 391.429811 870.929622" stroke="#000"/><path fill="#EF476F" d="M 242.214844 145.660156 C 241.863281 145.585938 241.617188 145.074219 241.410156 144.203125 C 241.203125 143.335938 241.027344 142.101562 240.734375 140.578125 C 240.445312 139.050781 240.035156 137.230469 239.335938 135.234375 C 238.636719 133.238281 237.648438 131.066406 236.214844 128.953125 C 234.902344 127.007812 233.195312 125.089844 231.089844 123.410156 C 228.984375 121.734375 226.484375 120.292969 223.710938 119.390625 C 219.742188 118.085938 215.058594 117.804688 210.691406 119.066406 C 206.730469 120.199219 202.855469 122.648438 200.191406 126.074219 C 199.605469 126.816406 199.070312 127.613281 198.585938 128.457031 C 197.257812 130.785156 196.390625 133.382812 195.996094 135.980469 C 195.417969 139.730469 195.863281 143.601562 196.984375 147.085938 C 198.246094 151.050781 200.519531 154.550781 203.179688 157.359375 C 205.839844 160.164062 208.882812 162.273438 211.890625 163.695312 C 214.746094 165.050781 217.605469 165.832031 220.195312 166.273438 C 222.785156 166.71875 225.109375 166.824219 227.042969 166.835938 C 228.972656 166.847656 230.519531 166.765625 231.625 166.796875 C 232.730469 166.828125 233.398438 166.972656 233.546875 167.347656 C 233.695312 167.722656 233.3125 168.3125 232.371094 169.027344 C 231.429688 169.742188 229.921875 170.578125 227.828125 171.300781 C 225.734375 172.023438 223.046875 172.628906 219.851562 172.761719 C 216.65625 172.898438 212.945312 172.5625 209 171.351562 C 204.828125 170.0625 200.472656 167.777344 196.558594 164.339844 C 192.640625 160.898438 189.167969 156.296875 186.988281 150.679688 C 185.101562 145.789062 184.269531 140.199219 184.988281 134.476562 C 185.488281 130.496094 186.777344 126.523438 188.863281 122.882812 C 189.621094 121.566406 190.472656 120.304688 191.414062 119.117188 C 195.777344 113.664062 201.78125 110.085938 208.007812 108.601562 C 211.425781 107.792969 214.847656 107.605469 218.101562 107.925781 C 221.355469 108.242188 224.441406 109.0625 227.238281 110.265625 C 231.152344 111.949219 234.429688 114.328125 237.015625 116.972656 C 239.601562 119.621094 241.5 122.53125 242.789062 125.382812 C 244.1875 128.480469 244.855469 131.457031 245.09375 134.054688 C 245.335938 136.652344 245.152344 138.878906 244.808594 140.640625 C 244.464844 142.402344 243.960938 143.699219 243.488281 144.53125 C 243.011719 145.363281 242.5625 145.734375 242.210938 145.660156 Z M 242.214844 145.660156" fill-rule="evenodd"/><path fill="#EF476F" d="M 280.210938 164.785156 C 280.644531 164.320312 281.300781 164.046875 282.183594 164.28125 C 283.066406 164.515625 284.179688 165.28125 284.863281 166.886719 C 285.472656 168.339844 285.660156 170.371094 284.679688 172.511719 C 284.089844 173.777344 283.152344 174.96875 281.839844 175.871094 C 280.648438 176.6875 279.242188 177.25 277.699219 177.429688 C 275.0625 177.722656 272.289062 176.953125 270.074219 174.972656 C 269.851562 174.765625 269.636719 174.554688 269.433594 174.332031 C 267.683594 172.414062 266.839844 170.003906 266.863281 167.589844 C 266.933594 164.585938 268.332031 162.144531 270.21875 160.589844 C 271.574219 159.667969 272.984375 159.164062 274.285156 158.960938 C 275.585938 158.761719 276.777344 158.863281 277.757812 159.132812 C 278.777344 159.992188 279.476562 160.820312 279.84375 161.582031 C 280.214844 162.34375 280.257812 163.046875 280.015625 163.664062 C 279.769531 164.28125 279.269531 164.765625 278.640625 165.136719 C 278.015625 165.503906 277.257812 165.757812 276.460938 165.902344 C 276.292969 166.429688 276.457031 167.074219 277.113281 167.332031 C 277.351562 167.460938 277.597656 167.5625 277.746094 167.289062 C 277.828125 167.070312 277.859375 166.9375 277.703125 166.761719 C 277.683594 166.742188 277.664062 166.722656 277.640625 166.699219 C 277.390625 166.515625 277.261719 166.59375 277.054688 166.738281 C 276.957031 166.828125 276.921875 166.972656 276.898438 167.128906 C 276.871094 167.304688 276.960938 167.488281 277.078125 167.644531 C 277.28125 167.9375 277.738281 167.914062 278.140625 167.734375 C 278.597656 167.539062 278.960938 167 279.253906 166.4375 C 279.546875 165.871094 279.777344 165.253906 280.210938 164.785156 Z M 280.210938 164.785156" fill-rule="evenodd"/><path fill="#EF476F" d="M 81.933594 225.8125 C 84.058594 223.859375 89.46875 227.429688 94.792969 233.179688 C 100.117188 238.929688 102.082031 245.671875 99.957031 247.621094 C 97.832031 249.574219 92.417969 246.003906 87.097656 240.253906 C 81.773438 234.507812 79.808594 227.765625 81.933594 225.8125 Z M 81.933594 225.8125"/><path fill="#EF476F" d="M 95.550781 214.183594 C 97.671875 212.230469 103.085938 215.800781 108.410156 221.550781 C 113.730469 227.300781 115.695312 234.039062 113.574219 235.992188 C 111.449219 237.945312 106.035156 234.375 100.710938 228.625 C 95.390625 222.875 93.425781 216.136719 95.550781 214.183594 Z M 95.550781 214.183594"/><path fill="#EF476F" d="M 88.722656 219.96875 C 90.847656 218.015625 96.261719 221.585938 101.585938 227.335938 C 106.90625 233.085938 108.871094 239.828125 106.746094 241.78125 C 104.625 243.730469 99.210938 240.160156 93.886719 234.414062 C 88.566406 228.664062 86.601562 221.921875 88.722656 219.96875 Z M 88.722656 219.96875"/><path fill="#EF476F" d="M 214.597656 231.265625 C 216.71875 229.3125 222.132812 232.882812 227.457031 238.632812 C 232.777344 244.382812 234.742188 251.121094 232.621094 253.074219 C 230.496094 255.027344 225.082031 251.457031 219.757812 245.707031 C 214.4375 239.957031 212.472656 233.21875 214.597656 231.265625 Z M 214.597656 231.265625" fill-rule="evenodd"/><path fill="#EF476F" d="M 228.210938 219.632812 C 230.335938 217.679688 235.75 221.25 241.074219 227 C 246.394531 232.75 248.359375 239.492188 246.234375 241.445312 C 244.113281 243.398438 238.699219 239.828125 233.375 234.078125 C 228.054688 228.328125 226.089844 221.585938 228.210938 219.632812 Z M 228.210938 219.632812" fill-rule="evenodd"/><path fill="#EF476F" d="M 221.386719 225.421875 C 223.511719 223.46875 228.925781 227.039062 234.25 232.789062 C 239.570312 238.539062 241.535156 245.277344 239.410156 247.230469 C 237.285156 249.183594 231.875 245.613281 226.550781 239.863281 C 221.230469 234.113281 219.265625 227.375 221.386719 225.421875 Z M 221.386719 225.421875" fill-rule="evenodd"/><path fill="#EF476F" d="M 373.238281 149.339844 L 330.203125 187.582031 L 328.066406 186.484375" fill-rule="evenodd"/><path fill="#EF476F" d="M 379.574219 161.847656 L 330.226562 191.488281 L 328.328125 190.011719" fill-rule="evenodd"/><path fill="#EF476F" d="M 384.136719 173.660156 L 330.449219 194.417969 L 328.832031 192.640625" fill-rule="evenodd"/><path fill="#EF476F" d="M 278.066406 264.675781 L 307.101562 214.949219 L 309.472656 215.332031" fill-rule="evenodd"/><path fill="#EF476F" d="M 268.160156 254.753906 L 305.867188 211.242188 L 308.128906 212.054688" fill-rule="evenodd"/><path fill="#EF476F" d="M 260.15625 244.941406 L 304.746094 208.527344 L 306.835938 209.714844" fill-rule="evenodd"/><path fill="#EF476F" d="M 288.160156 191.105469 C 288.882812 191.007812 289.679688 192.152344 290.855469 193.980469 C 292.03125 195.8125 293.640625 198.367188 296.132812 200.804688 C 297.28125 201.933594 298.621094 203.035156 300.160156 204.023438 C 301.695312 205.007812 303.425781 205.878906 305.300781 206.503906 C 308.167969 207.429688 311.382812 207.890625 314.285156 207.21875 C 316.765625 206.648438 319.273438 205.355469 320.746094 203.457031 C 320.804688 203.378906 320.863281 203.300781 320.917969 203.222656 C 321.660156 202.238281 322.199219 201.125 322.441406 200.03125 C 322.699219 198.90625 322.710938 197.722656 322.457031 196.707031 C 322.199219 195.644531 321.675781 194.625 320.996094 193.890625 C 320.285156 193.109375 319.328125 192.496094 318.390625 192.226562 C 317.433594 191.929688 316.328125 191.925781 315.367188 192.167969 C 314.285156 192.429688 313.25 193.054688 312.480469 193.8125 C 311.558594 194.714844 310.925781 195.910156 310.605469 197.046875 C 310.371094 197.855469 310.285156 198.671875 310.277344 199.425781 C 310.269531 200.183594 310.339844 200.875 310.429688 201.484375 C 310.777344 203.1875 310.714844 204.253906 310.183594 204.566406 C 309.648438 204.878906 308.6875 204.410156 307.382812 203.273438 C 306.765625 202.6875 306.117188 201.871094 305.578125 200.800781 C 305.035156 199.730469 304.59375 198.398438 304.445312 196.828125 C 304.242188 194.609375 304.628906 191.96875 306.089844 189.40625 C 307.320312 187.261719 309.261719 185.273438 311.90625 183.960938 C 314.265625 182.800781 317.070312 182.238281 320.027344 182.609375 C 322.90625 182.988281 325.742188 184.203125 328.085938 186.269531 C 330.273438 188.199219 331.957031 190.730469 332.871094 193.640625 C 333.730469 196.40625 333.90625 199.378906 333.328125 202.28125 C 332.773438 205.074219 331.589844 207.714844 329.855469 209.996094 C 329.71875 210.175781 329.574219 210.351562 329.429688 210.527344 C 325.871094 214.816406 320.992188 217.277344 316.136719 217.972656 C 310.628906 218.75 305.539062 217.609375 301.464844 215.605469 C 298.796875 214.316406 296.511719 212.6875 294.625 210.925781 C 292.734375 209.164062 291.246094 207.265625 290.113281 205.402344 C 288.886719 203.382812 288.085938 201.421875 287.589844 199.664062 C 287.09375 197.910156 286.894531 196.359375 286.875 195.09375 C 286.855469 193.828125 287.007812 192.847656 287.246094 192.179688 C 287.480469 191.507812 287.800781 191.152344 288.160156 191.105469 Z M 288.160156 191.105469" fill-rule="evenodd"/><path fill="#EF476F" d="M 234.398438 212.542969 C 234.691406 211.972656 235.699219 211.804688 237.277344 211.929688 C 238.859375 212.054688 241.015625 212.464844 243.648438 212.996094 C 248.921875 214.058594 256.144531 215.574219 264.492188 216.246094 C 267.894531 216.53125 271.492188 216.671875 275.234375 216.667969 C 285.058594 216.652344 294.277344 215.6875 301.535156 215.128906 C 306.078125 214.769531 309.84375 214.542969 312.539062 214.628906 C 315.230469 214.710938 316.855469 215.109375 317.078125 215.941406 C 317.300781 216.773438 316.09375 217.953125 313.695312 219.296875 C 311.292969 220.644531 307.699219 222.148438 303.175781 223.554688 C 299.558594 224.683594 295.324219 225.753906 290.613281 226.550781 C 285.898438 227.347656 280.707031 227.867188 275.242188 227.867188 C 271.078125 227.863281 267.023438 227.554688 263.203125 226.972656 C 258.507812 226.242188 254.222656 225.085938 250.503906 223.738281 C 246.785156 222.386719 243.636719 220.847656 241.144531 219.355469 C 238.65625 217.867188 236.820312 216.425781 235.683594 215.238281 C 234.546875 214.050781 234.105469 213.113281 234.398438 212.542969 Z M 234.398438 212.542969" fill-rule="evenodd"/></svg>