<svg xmlns="http://www.w3.org/2000/svg" width="375" viewBox="0 0 375 225" height="225" version="1.0"><defs><clipPath id="a"><path d="M 210 13.703125 L 250 13.703125 L 250 53 L 210 53 Z M 210 13.703125"/></clipPath><clipPath id="b"><path d="M 81 92 L 224 92 L 224 161.453125 L 81 161.453125 Z M 81 92"/></clipPath><clipPath id="c"><path d="M 80.511719 18 L 266 18 L 266 114 L 80.511719 114 Z M 80.511719 18"/></clipPath><clipPath id="d"><path d="M 263 77 L 294.261719 77 L 294.261719 89 L 263 89 Z M 263 77"/></clipPath></defs><g fill="#EF476F"><g><g><path d="M 14.710938 -8.324219 C 12.101562 -8.125 9.527344 -7.757812 6.988281 -7.222656 C 7.421875 -11.335938 7.824219 -15.445312 8.226562 -19.558594 C 8.527344 -22.769531 3.511719 -22.769531 3.210938 -19.558594 C 2.707031 -14.34375 2.171875 -9.128906 1.671875 -3.910156 C 1.503906 -2.273438 3.410156 -1.101562 4.847656 -1.503906 C 8.089844 -2.441406 11.367188 -3.042969 14.710938 -3.308594 C 17.921875 -3.542969 17.953125 -8.558594 14.710938 -8.324219 Z M 14.710938 -8.324219" transform="translate(4.937 192.469)"/></g></g></g><g fill="#EF476F"><g><g><path d="M 18.589844 -21.265625 C 15.847656 -25.777344 8.691406 -26.347656 5.117188 -22.703125 C 1.605469 -19.691406 1.101562 -12.707031 2.105469 -8.792969 C 2.808594 -6.117188 4.582031 -3.308594 7.320312 -2.441406 C 10.164062 -1.503906 13.308594 -2.542969 15.546875 -4.378906 C 17.820312 -6.285156 19.226562 -9.0625 19.691406 -11.96875 C 20.128906 -14.84375 20.160156 -18.691406 18.589844 -21.265625 Z M 12.503906 -8.257812 C 12.402344 -8.191406 12.335938 -8.125 12.238281 -8.023438 C 11.167969 -7.121094 9.460938 -6.753906 8.324219 -7.625 C 7.589844 -8.15625 7.253906 -9.0625 7.019531 -9.929688 C 6.6875 -11.367188 6.621094 -12.871094 6.789062 -14.34375 C 6.953125 -15.679688 7.289062 -17.386719 8.058594 -18.488281 C 8.761719 -19.460938 9.929688 -20.0625 11.132812 -20.09375 C 13.207031 -20.128906 14.542969 -18.722656 14.777344 -16.785156 C 15.179688 -13.84375 14.746094 -10.398438 12.503906 -8.257812 Z M 12.503906 -8.257812" transform="translate(23.76 192.469)"/></g></g></g><g fill="#EF476F"><g><g><path d="M 14.644531 -17.753906 C 13.308594 -14.210938 11.835938 -10.765625 10.296875 -7.320312 C 8.761719 -11.132812 7.824219 -15.3125 6.621094 -19.125 C 5.652344 -22.167969 0.800781 -20.863281 1.773438 -17.789062 C 3.609375 -12.003906 4.914062 -5.515625 8.191406 -0.367188 C 9.128906 1.136719 11.636719 1.402344 12.503906 -0.367188 C 15.078125 -5.582031 17.417969 -10.933594 19.460938 -16.417969 C 20.597656 -19.425781 15.78125 -20.730469 14.644531 -17.753906 Z M 14.644531 -17.753906" transform="translate(45.424 192.469)"/></g></g></g><g fill="#EF476F"><g><g><path d="M 13.941406 -7.089844 C 11.636719 -7.1875 9.328125 -7.089844 7.054688 -6.886719 C 7.222656 -8.15625 7.421875 -9.429688 7.589844 -10.699219 C 8.726562 -10.699219 9.863281 -10.664062 11 -10.53125 C 12.371094 -10.398438 13.507812 -11.769531 13.507812 -13.039062 C 13.507812 -14.511719 12.371094 -15.414062 11 -15.546875 C 10.128906 -15.648438 9.261719 -15.679688 8.359375 -15.714844 C 8.558594 -16.984375 8.792969 -18.289062 8.992188 -19.59375 C 10.699219 -19.59375 12.371094 -19.527344 14.074219 -19.425781 C 17.285156 -19.191406 17.285156 -24.207031 14.074219 -24.441406 C 11.667969 -24.609375 9.226562 -24.640625 6.820312 -24.542969 C 5.882812 -24.542969 5.214844 -24.074219 4.816406 -23.4375 C 4.648438 -23.171875 4.515625 -22.835938 4.445312 -22.46875 C 3.34375 -16.316406 2.441406 -10.164062 1.671875 -4.011719 C 1.4375 -2.207031 3.445312 -1.371094 4.847656 -1.570312 C 7.855469 -2.074219 10.898438 -2.207031 13.941406 -2.074219 C 17.152344 -1.9375 17.152344 -6.953125 13.941406 -7.089844 Z M 13.941406 -7.089844" transform="translate(66.755 192.469)"/></g></g></g><g fill="#EF476F"><g><g><path d="M 14.746094 -14.042969 C 11.167969 -14.109375 7.625 -14.210938 4.078125 -14.277344 C 0.835938 -14.34375 0.835938 -9.328125 4.078125 -9.261719 C 7.625 -9.195312 11.167969 -9.09375 14.746094 -9.027344 C 17.953125 -8.960938 17.953125 -13.976562 14.746094 -14.042969 Z M 14.746094 -14.042969" transform="translate(84.909 192.469)"/></g></g></g><g fill="#EF476F"><g><g><path d="M 15.113281 -23.238281 C 12.570312 -22.835938 10.0625 -22.433594 7.523438 -22.035156 C 5.117188 -21.632812 4.144531 -20.460938 3.878906 -18.054688 C 3.242188 -12.472656 2.574219 -6.886719 1.707031 -1.335938 C 1.203125 1.804688 6.019531 3.175781 6.519531 0 C 6.921875 -2.640625 7.320312 -5.28125 7.65625 -7.925781 C 9.597656 -8.324219 11.5 -8.527344 13.472656 -8.558594 C 16.683594 -8.59375 16.683594 -13.609375 13.472656 -13.574219 C 11.734375 -13.542969 10.03125 -13.40625 8.324219 -13.140625 C 8.359375 -13.273438 8.359375 -13.441406 8.390625 -13.609375 C 8.492188 -14.609375 8.828125 -15.816406 8.761719 -16.816406 C 8.761719 -16.953125 8.761719 -17.050781 8.792969 -17.183594 C 9.160156 -17.21875 9.5625 -17.285156 9.628906 -17.320312 C 11.902344 -17.652344 14.175781 -18.019531 16.449219 -18.390625 C 19.625 -18.890625 18.253906 -23.707031 15.113281 -23.238281 Z M 15.113281 -23.238281" transform="translate(103.731 192.469)"/></g></g></g><g fill="#EF476F"><g><g><path d="M 18.589844 -21.265625 C 15.847656 -25.777344 8.691406 -26.347656 5.117188 -22.703125 C 1.605469 -19.691406 1.101562 -12.707031 2.105469 -8.792969 C 2.808594 -6.117188 4.582031 -3.308594 7.320312 -2.441406 C 10.164062 -1.503906 13.308594 -2.542969 15.546875 -4.378906 C 17.820312 -6.285156 19.226562 -9.0625 19.691406 -11.96875 C 20.128906 -14.84375 20.160156 -18.691406 18.589844 -21.265625 Z M 12.503906 -8.257812 C 12.402344 -8.191406 12.335938 -8.125 12.238281 -8.023438 C 11.167969 -7.121094 9.460938 -6.753906 8.324219 -7.625 C 7.589844 -8.15625 7.253906 -9.0625 7.019531 -9.929688 C 6.6875 -11.367188 6.621094 -12.871094 6.789062 -14.34375 C 6.953125 -15.679688 7.289062 -17.386719 8.058594 -18.488281 C 8.761719 -19.460938 9.929688 -20.0625 11.132812 -20.09375 C 13.207031 -20.128906 14.542969 -18.722656 14.777344 -16.785156 C 15.179688 -13.84375 14.746094 -10.398438 12.503906 -8.257812 Z M 12.503906 -8.257812" transform="translate(123.657 192.469)"/></g></g></g><g fill="#EF476F"><g><g><path d="M 18.992188 -3.175781 C 17.152344 -5.683594 15.046875 -7.925781 12.636719 -9.863281 C 14.445312 -11.132812 15.949219 -12.90625 16.582031 -14.8125 C 17.855469 -18.625 14.445312 -22.367188 10.566406 -22.199219 C 6.453125 -22 3.746094 -18.1875 3.007812 -14.476562 C 2.039062 -9.664062 2.039062 -4.546875 1.671875 0.335938 C 1.402344 3.542969 6.417969 3.542969 6.6875 0.335938 C 6.886719 -2.308594 7.089844 -4.949219 7.320312 -7.589844 C 10.164062 -5.71875 12.636719 -3.410156 14.679688 -0.636719 C 16.550781 1.9375 20.929688 -0.570312 18.992188 -3.175781 Z M 11.835938 -16.550781 C 11.96875 -16.015625 10.464844 -14.679688 10.0625 -14.308594 C 9.363281 -13.675781 8.691406 -13.207031 7.824219 -13.105469 C 7.925781 -13.675781 8.058594 -14.242188 8.292969 -14.777344 C 8.527344 -15.414062 11.367188 -18.824219 11.835938 -16.550781 Z M 11.835938 -16.550781" transform="translate(145.322 192.469)"/></g></g></g><g fill="#EF476F"><g><g><path d="M 14.746094 -14.042969 C 11.167969 -14.109375 7.625 -14.210938 4.078125 -14.277344 C 0.835938 -14.34375 0.835938 -9.328125 4.078125 -9.261719 C 7.625 -9.195312 11.167969 -9.09375 14.746094 -9.027344 C 17.953125 -8.960938 17.953125 -13.976562 14.746094 -14.042969 Z M 14.746094 -14.042969" transform="translate(166.484 192.469)"/></g></g></g><g fill="#EF476F"><g><g><path d="M 15.210938 -23.003906 C 11.5 -23.472656 7.789062 -23.539062 4.046875 -23.171875 C 0.871094 -22.835938 0.835938 -17.820312 4.046875 -18.15625 C 5.046875 -18.253906 6.019531 -18.320312 6.988281 -18.355469 C 6.6875 -13.472656 6.417969 -8.558594 6.117188 -3.679688 C 5.917969 -0.46875 10.933594 -0.46875 11.132812 -3.679688 C 11.433594 -8.558594 11.703125 -13.40625 12.003906 -18.289062 C 13.074219 -18.222656 14.144531 -18.121094 15.210938 -17.988281 C 18.421875 -17.585938 18.390625 -22.601562 15.210938 -23.003906 Z M 15.210938 -23.003906" transform="translate(185.307 192.469)"/></g></g></g><g fill="#EF476F"><g><g><path d="M 14.308594 -23.40625 C 13.742188 -20.527344 13.273438 -17.652344 12.871094 -14.746094 L 8.226562 -14.746094 C 8.292969 -15.480469 8.390625 -16.183594 8.457031 -16.917969 C 8.660156 -18.421875 8.625 -20.261719 9.160156 -21.699219 C 10.296875 -24.742188 5.449219 -26.046875 4.3125 -23.035156 C 3.777344 -21.566406 3.777344 -19.726562 3.609375 -18.121094 C 3.375 -16.382812 3.175781 -14.609375 2.976562 -12.839844 C 2.542969 -9.160156 2.105469 -5.484375 1.671875 -1.804688 C 1.304688 1.402344 6.320312 1.371094 6.6875 -1.804688 C 6.988281 -4.445312 7.320312 -7.089844 7.625 -9.761719 L 12.238281 -9.761719 C 12.003906 -7.65625 11.800781 -5.582031 11.636719 -3.476562 C 11.402344 -0.265625 16.417969 -0.265625 16.652344 -3.476562 C 17.117188 -9.730469 17.953125 -15.914062 19.15625 -22.066406 C 19.761719 -25.210938 14.945312 -26.546875 14.308594 -23.40625 Z M 14.308594 -23.40625" transform="translate(204.598 192.469)"/></g></g></g><g fill="#EF476F"><g><g><path d="M 13.941406 -7.089844 C 11.636719 -7.1875 9.328125 -7.089844 7.054688 -6.886719 C 7.222656 -8.15625 7.421875 -9.429688 7.589844 -10.699219 C 8.726562 -10.699219 9.863281 -10.664062 11 -10.53125 C 12.371094 -10.398438 13.507812 -11.769531 13.507812 -13.039062 C 13.507812 -14.511719 12.371094 -15.414062 11 -15.546875 C 10.128906 -15.648438 9.261719 -15.679688 8.359375 -15.714844 C 8.558594 -16.984375 8.792969 -18.289062 8.992188 -19.59375 C 10.699219 -19.59375 12.371094 -19.527344 14.074219 -19.425781 C 17.285156 -19.191406 17.285156 -24.207031 14.074219 -24.441406 C 11.667969 -24.609375 9.226562 -24.640625 6.820312 -24.542969 C 5.882812 -24.542969 5.214844 -24.074219 4.816406 -23.4375 C 4.648438 -23.171875 4.515625 -22.835938 4.445312 -22.46875 C 3.34375 -16.316406 2.441406 -10.164062 1.671875 -4.011719 C 1.4375 -2.207031 3.445312 -1.371094 4.847656 -1.570312 C 7.855469 -2.074219 10.898438 -2.207031 13.941406 -2.074219 C 17.152344 -1.9375 17.152344 -6.953125 13.941406 -7.089844 Z M 13.941406 -7.089844" transform="translate(225.493 192.469)"/></g></g></g><g fill="#EF476F"><g><g><path d="M 14.746094 -14.042969 C 11.167969 -14.109375 7.625 -14.210938 4.078125 -14.277344 C 0.835938 -14.34375 0.835938 -9.328125 4.078125 -9.261719 C 7.625 -9.195312 11.167969 -9.09375 14.746094 -9.027344 C 17.953125 -8.960938 17.953125 -13.976562 14.746094 -14.042969 Z M 14.746094 -14.042969" transform="translate(243.647 192.469)"/></g></g></g><g fill="#EF476F"><g><g><path d="M 19.527344 -19.023438 C 19.125 -22.167969 14.109375 -22.199219 14.511719 -19.023438 C 14.980469 -15.347656 14.445312 -9.226562 10.53125 -7.355469 C 6.320312 -5.347656 6.621094 -17.351562 6.753906 -19.359375 C 6.988281 -22.570312 1.972656 -22.535156 1.738281 -19.359375 C 1.335938 -13.707031 1.9375 -0.703125 10.734375 -2.207031 C 17.855469 -3.410156 20.292969 -13.007812 19.527344 -19.023438 Z M 19.527344 -19.023438" transform="translate(262.47 192.469)"/></g></g></g><g fill="#EF476F"><g><g><path d="M 15.179688 -13.976562 C 12.738281 -13.910156 8.058594 -13.675781 9.429688 -9.828125 C 10.164062 -7.722656 12.738281 -7.722656 13.875 -8.925781 C 14.042969 -8.925781 14.210938 -8.925781 14.34375 -8.925781 C 14.410156 -8.925781 14.476562 -8.925781 14.511719 -8.925781 C 14.476562 -8.691406 14.476562 -8.492188 14.410156 -8.359375 C 14.242188 -7.925781 13.976562 -7.488281 13.640625 -7.15625 C 12.003906 -5.484375 8.058594 -6.417969 7.054688 -8.492188 C 4.949219 -12.871094 10.0625 -21.464844 15.3125 -19.660156 C 18.355469 -18.589844 19.691406 -23.40625 16.652344 -24.472656 C 4.546875 -28.71875 -5.28125 -5.652344 7.992188 -1.90625 C 10.734375 -1.136719 13.707031 -1.003906 16.082031 -2.675781 C 18.253906 -4.210938 19.59375 -6.855469 19.726562 -9.460938 C 19.828125 -12.570312 18.15625 -14.007812 15.179688 -13.976562 Z M 15.179688 -13.976562" transform="translate(283.8 192.469)"/></g></g></g><g fill="#EF476F"><g><g><path d="M 14.710938 -8.324219 C 12.101562 -8.125 9.527344 -7.757812 6.988281 -7.222656 C 7.421875 -11.335938 7.824219 -15.445312 8.226562 -19.558594 C 8.527344 -22.769531 3.511719 -22.769531 3.210938 -19.558594 C 2.707031 -14.34375 2.171875 -9.128906 1.671875 -3.910156 C 1.503906 -2.273438 3.410156 -1.101562 4.847656 -1.503906 C 8.089844 -2.441406 11.367188 -3.042969 14.710938 -3.308594 C 17.921875 -3.542969 17.953125 -8.558594 14.710938 -8.324219 Z M 14.710938 -8.324219" transform="translate(305.197 192.469)"/></g></g></g><g fill="#EF476F"><g><g><path d="M 3.175781 -20.597656 C 2.507812 -14.578125 2.007812 -8.527344 1.671875 -2.472656 C 1.472656 0.769531 6.488281 0.734375 6.6875 -2.472656 C 7.019531 -8.527344 7.523438 -14.578125 8.191406 -20.597656 C 8.527344 -23.804688 3.511719 -23.804688 3.175781 -20.597656 Z M 3.175781 -20.597656" transform="translate(324.02 192.469)"/></g></g></g><g fill="#EF476F"><g><g><path d="M 13.941406 -7.089844 C 11.636719 -7.1875 9.328125 -7.089844 7.054688 -6.886719 C 7.222656 -8.15625 7.421875 -9.429688 7.589844 -10.699219 C 8.726562 -10.699219 9.863281 -10.664062 11 -10.53125 C 12.371094 -10.398438 13.507812 -11.769531 13.507812 -13.039062 C 13.507812 -14.511719 12.371094 -15.414062 11 -15.546875 C 10.128906 -15.648438 9.261719 -15.679688 8.359375 -15.714844 C 8.558594 -16.984375 8.792969 -18.289062 8.992188 -19.59375 C 10.699219 -19.59375 12.371094 -19.527344 14.074219 -19.425781 C 17.285156 -19.191406 17.285156 -24.207031 14.074219 -24.441406 C 11.667969 -24.609375 9.226562 -24.640625 6.820312 -24.542969 C 5.882812 -24.542969 5.214844 -24.074219 4.816406 -23.4375 C 4.648438 -23.171875 4.515625 -22.835938 4.445312 -22.46875 C 3.34375 -16.316406 2.441406 -10.164062 1.671875 -4.011719 C 1.4375 -2.207031 3.445312 -1.371094 4.847656 -1.570312 C 7.855469 -2.074219 10.898438 -2.207031 13.941406 -2.074219 C 17.152344 -1.9375 17.152344 -6.953125 13.941406 -7.089844 Z M 13.941406 -7.089844" transform="translate(333.916 192.469)"/></g></g></g><g fill="#EF476F"><g><g><path d="M 12.4375 -14.476562 C 11.570312 -15.078125 9.5625 -15.613281 9.160156 -16.652344 C 8.558594 -18.289062 10.800781 -19.460938 11.9375 -19.992188 C 14.84375 -21.363281 12.304688 -25.679688 9.394531 -24.308594 C 4.914062 -22.199219 1.804688 -16.25 6.285156 -12.371094 C 7.855469 -11 10.964844 -10.464844 11.300781 -7.992188 C 11.433594 -6.953125 10.933594 -5.984375 9.996094 -5.582031 C 9.363281 -5.316406 7.019531 -4.949219 6.488281 -5.683594 C 4.546875 -8.226562 0.199219 -5.71875 2.140625 -3.144531 C 6.085938 2.074219 15.515625 -0.132812 16.25 -6.820312 C 16.582031 -9.898438 14.980469 -12.804688 12.4375 -14.476562 Z M 12.4375 -14.476562" transform="translate(352.07 192.469)"/></g></g></g><path fill="#333" d="M 231.832031 48.40625 C 231.710938 48.089844 232.242188 47.558594 233.179688 46.726562 C 234.117188 45.894531 235.46875 44.738281 236.824219 43.074219 C 237.886719 41.761719 238.949219 40.097656 239.722656 38.125 C 240.496094 36.152344 240.984375 33.867188 240.773438 31.515625 C 240.621094 29.636719 240.074219 27.683594 239.050781 25.972656 C 238.113281 24.390625 236.757812 22.960938 235.125 22 C 234.230469 21.460938 233.214844 21.054688 232.144531 20.808594 C 230.351562 20.390625 228.484375 20.425781 226.828125 20.894531 C 225.382812 21.289062 224.035156 22.03125 222.898438 22.964844 C 221.757812 23.898438 220.835938 25.019531 220.191406 26.21875 C 219.402344 27.660156 218.988281 29.265625 218.875 30.804688 C 218.757812 32.339844 218.941406 33.808594 219.324219 35.09375 C 219.734375 36.484375 220.382812 37.699219 221.070312 38.703125 C 221.757812 39.710938 222.488281 40.511719 223.125 41.148438 C 223.761719 41.785156 224.308594 42.261719 224.671875 42.636719 C 225.039062 43.011719 225.21875 43.289062 225.148438 43.484375 C 225.074219 43.683594 224.75 43.789062 224.1875 43.757812 C 223.621094 43.722656 222.8125 43.550781 221.835938 43.125 C 220.855469 42.703125 219.707031 42.027344 218.550781 40.988281 C 217.394531 39.949219 216.230469 38.542969 215.335938 36.714844 C 214.515625 35.019531 213.953125 32.996094 213.855469 30.777344 C 213.761719 28.558594 214.132812 26.140625 215.164062 23.789062 C 216.027344 21.847656 217.316406 20.019531 218.996094 18.484375 C 220.671875 16.949219 222.738281 15.710938 225.082031 14.980469 C 227.773438 14.15625 230.71875 14.039062 233.5625 14.707031 C 235.261719 15.105469 236.878906 15.773438 238.347656 16.675781 C 240.953125 18.292969 242.964844 20.554688 244.285156 23.050781 C 245.710938 25.75 246.328125 28.640625 246.3125 31.347656 C 246.277344 34.761719 245.300781 37.769531 243.96875 40.179688 C 242.636719 42.589844 240.949219 44.40625 239.324219 45.683594 C 238.308594 46.488281 237.324219 47.089844 236.429688 47.535156 C 235.535156 47.976562 234.734375 48.265625 234.070312 48.441406 C 232.738281 48.792969 231.957031 48.71875 231.832031 48.40625 Z M 231.832031 48.40625"/><g clip-path="url(#a)"><path transform="matrix(.62412 0 0 .62606 17.849 -461.552)" fill="none" d="M 342.85725 814.55297 C 342.663227 814.047577 343.514428 813.199015 345.016547 811.870017 C 346.518667 810.54102 348.684222 808.69415 350.856037 806.036155 C 352.558439 803.939708 354.260841 801.281714 355.50009 798.130804 C 356.739338 794.979895 357.521692 791.329831 357.183715 787.573697 C 356.939621 784.572534 356.063385 781.452822 354.423571 778.719954 C 352.921451 776.192987 350.749637 773.909357 348.133445 772.374459 C 346.700173 771.513418 345.072877 770.864518 343.357957 770.471434 C 340.485153 769.803816 337.493432 769.85997 334.839687 770.608701 C 332.52392 771.238883 330.364623 772.424374 328.543303 773.915597 C 326.715724 775.406819 325.23864 777.197534 324.205933 779.113037 C 322.941649 781.415385 322.278213 783.979789 322.096706 786.438122 C 321.908941 788.890216 322.203107 791.23624 322.816472 793.28901 C 323.473649 795.510246 324.512615 797.450707 325.61417 799.054239 C 326.715724 800.66401 327.886125 801.943093 328.906315 802.960119 C 329.926505 803.977145 330.802741 804.738355 331.384812 805.33734 C 331.973142 805.936324 332.261049 806.379324 332.14839 806.691295 C 332.029472 807.009505 331.509989 807.17797 330.608717 807.128054 C 329.701187 807.0719 328.405609 806.797365 326.840901 806.117268 C 325.269934 805.44341 323.429838 804.363989 321.577223 802.704302 C 319.724609 801.044615 317.859478 798.798422 316.426205 795.878372 C 315.111851 793.170461 314.210579 789.938439 314.054108 786.394446 C 313.903896 782.850453 314.498485 778.988249 316.150817 775.232115 C 317.534018 772.131121 319.599433 769.21107 322.29073 766.758976 C 324.975769 764.306882 328.286691 762.328985 332.04199 761.162212 C 336.354324 759.845694 341.073483 759.658511 345.629913 760.725453 C 348.352504 761.361874 350.943661 762.428816 353.296981 763.870123 C 357.471622 766.453245 360.69492 770.065872 362.810405 774.052864 C 365.094878 778.364306 366.083774 782.981481 366.058738 787.305402 C 366.002409 792.758659 364.437701 797.563016 362.30344 801.412741 C 360.169178 805.262466 357.465363 808.163799 354.861689 810.204091 C 353.234393 811.489412 351.657167 812.450284 350.223895 813.161578 C 348.790623 813.866633 347.507562 814.328351 346.443561 814.609125 C 344.309299 815.170673 343.057533 815.052124 342.85725 814.55297 Z M 342.85725 814.55297" stroke="#000"/></g><g clip-path="url(#b)"><path fill="#333" d="M 88.730469 92.90625 C 88.851562 92.988281 88.769531 93.359375 88.535156 94.011719 C 88.296875 94.664062 87.910156 95.59375 87.464844 96.8125 C 87.015625 98.035156 86.515625 99.546875 86.089844 101.351562 C 85.664062 103.15625 85.316406 105.257812 85.199219 107.609375 C 85.097656 109.703125 85.179688 112 85.570312 114.421875 C 85.960938 116.839844 86.65625 119.378906 87.789062 121.882812 C 89.179688 125.011719 91.234375 128.09375 93.945312 130.90625 C 96.652344 133.722656 100.015625 136.265625 103.847656 138.246094 C 107.09375 139.929688 110.691406 141.207031 114.542969 142.058594 C 118.398438 142.914062 122.503906 143.339844 126.710938 143.351562 C 130.519531 143.359375 134.421875 143.011719 138.386719 142.378906 C 142.351562 141.742188 146.378906 140.820312 150.429688 139.710938 C 151.03125 139.542969 151.632812 139.375 152.234375 139.203125 C 159.746094 137.035156 167.007812 134.371094 174.105469 131.917969 C 178.371094 130.410156 182.730469 128.988281 187.105469 128.050781 C 191.476562 127.113281 195.863281 126.664062 200.1875 126.945312 C 205.007812 127.285156 209.628906 128.6875 213.5 131.050781 C 215.664062 132.375 217.554688 134.019531 219.097656 135.859375 C 220.636719 137.699219 221.828125 139.734375 222.628906 141.855469 C 223.675781 144.628906 223.988281 147.535156 223.609375 150.226562 C 223.398438 151.753906 222.945312 153.191406 222.3125 154.480469 C 221.683594 155.773438 220.875 156.914062 219.945312 157.878906 C 218.824219 159.039062 217.53125 159.894531 216.21875 160.46875 C 214.902344 161.039062 213.566406 161.328125 212.296875 161.378906 C 210.515625 161.445312 208.933594 161.015625 207.675781 160.394531 C 206.417969 159.773438 205.476562 158.957031 204.816406 158.15625 C 203.929688 157.066406 203.558594 156.054688 203.40625 155.367188 C 203.253906 154.679688 203.3125 154.304688 203.449219 154.261719 C 203.585938 154.222656 203.804688 154.511719 204.179688 155.023438 C 204.558594 155.53125 205.109375 156.273438 205.996094 156.984375 C 206.644531 157.507812 207.488281 158 208.523438 158.324219 C 209.558594 158.644531 210.792969 158.792969 212.0625 158.601562 C 212.976562 158.464844 213.921875 158.144531 214.832031 157.625 C 215.742188 157.109375 216.617188 156.394531 217.34375 155.511719 C 217.957031 154.773438 218.464844 153.898438 218.847656 152.925781 C 219.230469 151.949219 219.480469 150.875 219.566406 149.761719 C 219.726562 147.78125 219.328125 145.613281 218.433594 143.546875 C 217.753906 141.957031 216.746094 140.4375 215.46875 139.066406 C 214.1875 137.695312 212.632812 136.464844 210.894531 135.480469 C 207.757812 133.695312 203.917969 132.71875 199.855469 132.523438 C 196.1875 132.320312 192.371094 132.832031 188.410156 133.800781 C 184.453125 134.769531 180.351562 136.199219 176.128906 137.6875 C 169.113281 140.214844 161.765625 142.960938 153.957031 145.214844 C 153.332031 145.398438 152.707031 145.574219 152.082031 145.746094 C 147.851562 146.914062 143.585938 147.867188 139.332031 148.507812 C 135.078125 149.148438 130.839844 149.472656 126.660156 149.417969 C 122.039062 149.359375 117.496094 148.792969 113.214844 147.726562 C 108.933594 146.664062 104.910156 145.101562 101.269531 143.09375 C 96.941406 140.707031 93.222656 137.648438 90.277344 134.285156 C 87.332031 130.917969 85.15625 127.246094 83.742188 123.5625 C 82.609375 120.578125 82.003906 117.636719 81.765625 114.886719 C 81.527344 112.136719 81.652344 109.578125 81.988281 107.285156 C 82.359375 104.71875 82.996094 102.480469 83.710938 100.609375 C 84.425781 98.738281 85.214844 97.230469 85.933594 96.0625 C 86.65625 94.894531 87.308594 94.070312 87.796875 93.550781 C 88.285156 93.035156 88.605469 92.824219 88.730469 92.90625 Z M 88.730469 92.90625" fill-rule="evenodd"/></g><path fill="#333" d="M 134.644531 102.484375 C 134.65625 102.082031 135.765625 101.722656 137.785156 101.457031 C 139.804688 101.191406 142.742188 101.019531 146.386719 101.046875 C 150.035156 101.074219 154.398438 101.296875 159.25 101.824219 C 164.105469 102.347656 169.449219 103.171875 175.046875 104.367188 C 176.730469 104.707031 178.425781 105.085938 180.117188 105.453125 C 183.085938 106.097656 185.914062 106.675781 188.578125 106.972656 C 191.242188 107.273438 193.742188 107.292969 196.085938 106.929688 C 197.867188 106.667969 199.554688 106.230469 201.066406 105.625 C 202.582031 105.019531 203.914062 104.25 205.039062 103.351562 C 206.542969 102.152344 207.722656 100.714844 208.53125 99.308594 C 209.34375 97.898438 209.792969 96.511719 210.003906 95.277344 C 210.277344 93.75 210.230469 92.453125 210.207031 91.539062 C 210.1875 90.625 210.203125 90.074219 210.449219 89.960938 C 210.695312 89.851562 211.167969 90.195312 211.699219 91.074219 C 212.234375 91.957031 212.832031 93.394531 212.984375 95.378906 C 213.097656 96.988281 212.902344 98.914062 212.167969 100.949219 C 211.4375 102.980469 210.167969 105.121094 208.269531 106.972656 C 206.875 108.332031 205.207031 109.539062 203.308594 110.507812 C 201.414062 111.476562 199.292969 112.210938 197.050781 112.632812 C 194.136719 113.167969 191.101562 113.277344 188.03125 113.058594 C 184.960938 112.839844 181.851562 112.292969 178.78125 111.625 C 177.03125 111.242188 175.339844 110.832031 173.710938 110.4375 C 168.292969 109.195312 163.144531 108.167969 158.464844 107.316406 C 153.785156 106.464844 149.574219 105.789062 146.042969 105.214844 C 142.511719 104.640625 139.65625 104.171875 137.6875 103.730469 C 135.71875 103.292969 134.636719 102.886719 134.648438 102.484375 Z M 134.644531 102.484375" fill-rule="evenodd"/><path fill="#333" d="M 262.148438 83.703125 C 261.964844 83.816406 261.183594 82.945312 259.792969 81.242188 C 258.402344 79.542969 256.402344 77.007812 253.683594 73.882812 C 250.964844 70.757812 247.527344 67.042969 243.246094 63.046875 C 238.964844 59.050781 233.835938 54.777344 227.789062 50.613281 C 222.167969 46.742188 215.75 42.964844 208.558594 39.644531 C 201.367188 36.328125 193.40625 33.464844 184.804688 31.464844 C 174.925781 29.175781 164.140625 28.003906 153.058594 28.5625 C 141.980469 29.121094 130.613281 31.417969 119.820312 36.050781 C 119.574219 36.15625 119.324219 36.269531 119.074219 36.378906 C 113.644531 38.792969 108.496094 41.742188 104.023438 45.242188 C 99.546875 48.742188 95.746094 52.789062 92.917969 57.375 C 89.835938 62.324219 87.863281 67.824219 87.355469 73.28125 C 86.816406 79.027344 87.851562 84.78125 90.320312 89.539062 C 91.816406 92.46875 93.863281 95.050781 96.21875 97.199219 C 98.574219 99.347656 101.238281 101.066406 104.019531 102.300781 C 107.132812 103.6875 110.414062 104.480469 113.644531 104.777344 C 116.871094 105.074219 120.050781 104.878906 123.027344 104.296875 C 125.546875 103.792969 127.9375 103.019531 130.105469 102.015625 C 132.273438 101.011719 134.222656 99.78125 135.90625 98.375 C 137.941406 96.675781 139.605469 94.714844 140.859375 92.6875 C 142.113281 90.660156 142.953125 88.570312 143.425781 86.539062 C 144.125 83.601562 144.027344 80.796875 143.609375 78.421875 C 143.1875 76.050781 142.445312 74.09375 141.714844 72.570312 C 140.988281 71.046875 140.273438 69.945312 139.792969 69.195312 C 139.3125 68.441406 139.070312 68.023438 139.164062 67.929688 C 139.261719 67.832031 139.699219 68.054688 140.398438 68.664062 C 141.101562 69.273438 142.070312 70.269531 143.082031 71.78125 C 144.097656 73.289062 145.15625 75.320312 145.867188 77.90625 C 146.578125 80.488281 146.945312 83.640625 146.378906 87.125 C 145.980469 89.507812 145.160156 91.992188 143.851562 94.417969 C 142.542969 96.847656 140.742188 99.222656 138.453125 101.304688 C 136.570312 103.019531 134.390625 104.542969 131.953125 105.800781 C 129.519531 107.0625 126.832031 108.058594 123.980469 108.71875 C 120.617188 109.511719 117 109.859375 113.277344 109.625 C 109.550781 109.394531 105.722656 108.582031 102.003906 107.058594 C 98.679688 105.691406 95.484375 103.742188 92.632812 101.246094 C 89.777344 98.746094 87.269531 95.699219 85.359375 92.171875 C 82.28125 86.417969 80.902344 79.601562 81.480469 72.761719 C 82.023438 66.285156 84.21875 59.867188 87.742188 54.148438 C 91.007812 48.894531 95.261719 44.28125 100.183594 40.355469 C 105.109375 36.425781 110.703125 33.183594 116.566406 30.636719 C 116.835938 30.519531 117.105469 30.40625 117.375 30.292969 C 128.953125 25.367188 141.054688 22.964844 152.777344 22.457031 C 164.496094 21.949219 175.824219 23.332031 186.132812 25.933594 C 195.113281 28.1875 203.363281 31.359375 210.757812 35.011719 C 218.152344 38.664062 224.691406 42.796875 230.351562 47.019531 C 236.441406 51.5625 241.523438 56.210938 245.6875 60.558594 C 249.851562 64.90625 253.101562 68.949219 255.578125 72.371094 C 258.054688 75.792969 259.761719 78.59375 260.828125 80.542969 C 261.898438 82.488281 262.328125 83.585938 262.144531 83.703125 Z M 262.148438 83.703125"/><g clip-path="url(#c)"><path transform="matrix(.62412 0 0 .62606 17.849 -461.552)" fill="none" d="M 391.432041 870.932412 C 391.137876 871.113355 389.88611 869.721964 387.657966 867.001574 C 385.429822 864.287425 382.2253 860.238038 377.869153 855.246498 C 373.513007 850.254958 368.005235 844.321265 361.145556 837.938334 C 354.285877 831.555402 346.068031 824.729472 336.37936 818.078245 C 327.372901 811.894975 317.089641 805.861451 305.567133 800.55794 C 294.044624 795.260669 281.289125 790.68717 267.507179 787.492585 C 251.678594 783.836282 234.39796 781.964455 216.641655 782.856692 C 198.891609 783.74893 180.67841 787.417712 163.385259 794.817669 C 162.990952 794.986134 162.590387 795.167077 162.189822 795.341781 C 153.490046 799.197746 145.240906 803.908511 138.074544 809.499036 C 130.901924 815.08956 124.812081 821.553605 120.280687 828.878689 C 115.342469 836.78404 112.181759 845.56915 111.368111 854.285627 C 110.504392 863.463821 112.162982 872.654493 116.118564 880.254113 C 118.515696 884.933681 121.795324 889.057941 125.569399 892.489624 C 129.343475 895.921308 133.611998 898.666655 138.068286 900.638313 C 143.056574 902.853309 148.313993 904.119912 153.490046 904.594108 C 158.659841 905.068305 163.75453 904.756333 168.523759 903.826659 C 172.560706 903.021773 176.39111 901.786367 179.864762 900.182835 C 183.338413 898.579303 186.46157 896.613884 189.159127 894.367691 C 192.419978 891.653542 195.08624 888.52135 197.095325 885.283089 C 199.10441 882.044827 200.450059 878.706735 201.207377 875.462234 C 202.327708 870.770187 202.171237 866.29028 201.501542 862.49671 C 200.825588 858.709379 199.63641 855.583427 198.466009 853.150051 C 197.301866 850.716676 196.1565 848.957158 195.386664 847.759188 C 194.616828 846.554979 194.22878 845.887361 194.378992 845.737615 C 194.535463 845.581629 195.236452 845.937276 196.356783 846.910627 C 197.483372 847.883977 199.035563 849.47503 200.6566 851.889688 C 202.283896 854.298106 203.980039 857.542606 205.119147 861.673106 C 206.258254 865.797365 206.846584 870.832581 205.939054 876.398148 C 205.300653 880.204197 203.986298 884.172471 201.88959 888.047154 C 199.792881 891.928076 196.90756 895.721646 193.239885 899.04726 C 190.223128 901.786367 186.7307 904.219743 182.825189 906.228838 C 178.925937 908.244172 174.619861 909.835225 170.050914 910.889688 C 164.66206 912.156291 158.866382 912.7116 152.901716 912.337235 C 146.930791 911.969108 140.797136 910.671308 134.838729 908.237932 C 129.512463 906.054134 124.392739 902.940661 119.823792 898.953668 C 115.248586 894.960437 111.230416 890.093685 108.169848 884.459485 C 103.237889 875.268812 101.028521 864.381016 101.954828 853.455783 C 102.824806 843.110817 106.342269 832.859442 111.987735 823.724924 C 117.220118 815.332898 124.035985 807.964137 131.922113 801.693516 C 139.8145 795.416654 148.777146 790.237932 158.171652 786.169827 C 158.603511 785.982644 159.035371 785.801701 159.46723 785.620757 C 178.018407 777.752843 197.408266 773.915597 216.19102 773.104471 C 234.967514 772.293346 253.118125 774.502103 269.635181 778.657559 C 284.024235 782.257707 297.242887 787.32412 309.090855 793.157982 C 320.938823 798.991845 331.416106 805.593156 340.485153 812.337974 C 350.242671 819.594425 358.385411 827.019341 365.057325 833.96382 C 371.72924 840.9083 376.936588 847.366105 380.904687 852.831841 C 384.872786 858.297577 387.607895 862.771244 389.316556 865.884717 C 391.031476 868.991951 391.719947 870.745229 391.425782 870.932412 Z M 391.432041 870.932412" stroke="#000"/></g><path fill="#333" d="M 215.339844 61.675781 C 215.144531 61.636719 215.007812 61.351562 214.890625 60.863281 C 214.777344 60.378906 214.679688 59.691406 214.515625 58.839844 C 214.355469 57.988281 214.125 56.972656 213.734375 55.859375 C 213.347656 54.746094 212.796875 53.53125 212 52.355469 C 211.269531 51.269531 210.316406 50.199219 209.144531 49.261719 C 207.972656 48.324219 206.582031 47.519531 205.039062 47.015625 C 202.832031 46.289062 200.222656 46.132812 197.792969 46.835938 C 195.585938 47.46875 193.429688 48.835938 191.949219 50.746094 C 191.621094 51.160156 191.324219 51.605469 191.054688 52.074219 C 190.3125 53.375 189.832031 54.824219 189.613281 56.273438 C 189.292969 58.367188 189.539062 60.527344 190.160156 62.472656 C 190.863281 64.683594 192.128906 66.640625 193.609375 68.207031 C 195.089844 69.769531 196.785156 70.949219 198.460938 71.742188 C 200.050781 72.5 201.640625 72.933594 203.082031 73.179688 C 204.523438 73.429688 205.816406 73.488281 206.894531 73.496094 C 207.96875 73.5 208.832031 73.457031 209.445312 73.472656 C 210.058594 73.488281 210.429688 73.570312 210.511719 73.78125 C 210.597656 73.988281 210.382812 74.320312 209.859375 74.71875 C 209.335938 75.117188 208.496094 75.585938 207.332031 75.988281 C 206.167969 76.390625 204.671875 76.726562 202.890625 76.800781 C 201.113281 76.878906 199.046875 76.691406 196.851562 76.015625 C 194.53125 75.292969 192.105469 74.019531 189.925781 72.101562 C 187.746094 70.179688 185.8125 67.613281 184.597656 64.476562 C 183.550781 61.75 183.085938 58.628906 183.484375 55.4375 C 183.765625 53.214844 184.480469 50.996094 185.640625 48.964844 C 186.0625 48.230469 186.539062 47.527344 187.0625 46.863281 C 189.492188 43.820312 192.832031 41.824219 196.296875 40.996094 C 198.203125 40.542969 200.105469 40.441406 201.917969 40.617188 C 203.730469 40.796875 205.445312 41.253906 207.003906 41.921875 C 209.183594 42.863281 211.007812 44.191406 212.445312 45.667969 C 213.882812 47.144531 214.941406 48.769531 215.660156 50.359375 C 216.4375 52.089844 216.808594 53.75 216.941406 55.199219 C 217.078125 56.652344 216.976562 57.894531 216.78125 58.875 C 216.589844 59.859375 216.3125 60.582031 216.046875 61.046875 C 215.78125 61.511719 215.535156 61.71875 215.339844 61.675781 Z M 215.339844 61.675781" fill-rule="evenodd"/><path fill="#333" d="M 236.488281 72.351562 C 236.730469 72.089844 237.097656 71.9375 237.585938 72.070312 C 238.078125 72.199219 238.699219 72.628906 239.078125 73.523438 C 239.417969 74.335938 239.523438 75.46875 238.976562 76.660156 C 238.648438 77.367188 238.125 78.035156 237.394531 78.539062 C 236.734375 78.992188 235.949219 79.308594 235.089844 79.40625 C 233.625 79.570312 232.078125 79.140625 230.847656 78.035156 C 230.722656 77.921875 230.605469 77.800781 230.492188 77.679688 C 229.515625 76.609375 229.046875 75.261719 229.0625 73.914062 C 229.097656 72.238281 229.878906 70.875 230.925781 70.007812 C 231.679688 69.492188 232.464844 69.210938 233.191406 69.101562 C 233.914062 68.988281 234.578125 69.046875 235.125 69.195312 C 235.691406 69.675781 236.078125 70.136719 236.285156 70.5625 C 236.492188 70.988281 236.515625 71.378906 236.378906 71.722656 C 236.246094 72.066406 235.964844 72.339844 235.617188 72.546875 C 235.265625 72.753906 234.847656 72.894531 234.402344 72.972656 C 234.308594 73.269531 234.398438 73.628906 234.765625 73.769531 C 234.898438 73.84375 235.035156 73.898438 235.117188 73.746094 C 235.164062 73.625 235.179688 73.550781 235.09375 73.453125 C 235.082031 73.441406 235.070312 73.429688 235.058594 73.417969 C 234.917969 73.316406 234.847656 73.359375 234.730469 73.441406 C 234.679688 73.492188 234.660156 73.570312 234.644531 73.65625 C 234.628906 73.757812 234.679688 73.859375 234.746094 73.945312 C 234.859375 74.109375 235.113281 74.097656 235.335938 73.996094 C 235.589844 73.886719 235.792969 73.585938 235.957031 73.273438 C 236.121094 72.957031 236.25 72.609375 236.488281 72.351562 Z M 236.488281 72.351562" fill-rule="evenodd"/><path fill="#333" d="M 126.121094 106.410156 C 127.300781 105.320312 130.316406 107.3125 133.277344 110.519531 C 136.242188 113.726562 137.335938 117.488281 136.152344 118.578125 C 134.96875 119.667969 131.957031 117.675781 128.992188 114.46875 C 126.03125 111.257812 124.9375 107.5 126.121094 106.410156 Z M 126.121094 106.410156"/><path fill="#333" d="M 133.699219 99.917969 C 134.882812 98.828125 137.894531 100.820312 140.859375 104.027344 C 143.820312 107.238281 144.914062 111 143.730469 112.089844 C 142.550781 113.179688 139.535156 111.1875 136.574219 107.976562 C 133.609375 104.769531 132.515625 101.007812 133.699219 99.917969 Z M 133.699219 99.917969"/><path fill="#333" d="M 129.902344 103.148438 C 131.082031 102.058594 134.097656 104.050781 137.058594 107.257812 C 140.023438 110.46875 141.117188 114.230469 139.933594 115.320312 C 138.75 116.410156 135.738281 114.417969 132.773438 111.207031 C 129.8125 108 128.71875 104.238281 129.902344 103.148438 Z M 129.902344 103.148438"/><path fill="#333" d="M 199.964844 109.449219 C 201.148438 108.359375 204.160156 110.355469 207.125 113.5625 C 210.085938 116.769531 211.179688 120.53125 210 121.621094 C 208.816406 122.710938 205.800781 120.71875 202.839844 117.511719 C 199.875 114.300781 198.78125 110.539062 199.964844 109.449219 Z M 199.964844 109.449219" fill-rule="evenodd"/><path fill="#333" d="M 207.546875 102.960938 C 208.726562 101.871094 211.742188 103.863281 214.703125 107.070312 C 217.667969 110.28125 218.761719 114.042969 217.578125 115.132812 C 216.394531 116.222656 213.382812 114.230469 210.417969 111.019531 C 207.457031 107.8125 206.363281 104.050781 207.546875 102.960938 Z M 207.546875 102.960938" fill-rule="evenodd"/><path fill="#333" d="M 203.746094 106.191406 C 204.929688 105.101562 207.941406 107.09375 210.90625 110.300781 C 213.867188 113.511719 214.960938 117.269531 213.777344 118.359375 C 212.597656 119.449219 209.582031 117.457031 206.621094 114.25 C 203.65625 111.042969 202.5625 107.28125 203.746094 106.191406 Z M 203.746094 106.191406" fill-rule="evenodd"/><path fill="#333" d="M 288.273438 63.730469 L 264.316406 85.070312 L 263.128906 84.460938" fill-rule="evenodd"/><path fill="#333" d="M 291.800781 70.710938 L 264.328125 87.253906 L 263.273438 86.429688" fill-rule="evenodd"/><g clip-path="url(#d)"><path fill="#333" d="M 294.339844 77.304688 L 264.453125 88.886719 L 263.554688 87.894531" fill-rule="evenodd"/></g><path fill="#333" d="M 235.292969 128.09375 L 251.457031 100.347656 L 252.777344 100.558594" fill-rule="evenodd"/><path fill="#333" d="M 229.78125 122.558594 L 250.769531 98.277344 L 252.03125 98.730469" fill-rule="evenodd"/><path fill="#333" d="M 225.324219 117.082031 L 250.148438 96.761719 L 251.308594 97.425781" fill-rule="evenodd"/><path fill="#333" d="M 240.914062 87.039062 C 241.316406 86.984375 241.761719 87.621094 242.414062 88.644531 C 243.070312 89.667969 243.964844 91.089844 245.351562 92.453125 C 245.992188 93.082031 246.738281 93.699219 247.59375 94.246094 C 248.449219 94.796875 249.410156 95.28125 250.457031 95.632812 C 252.050781 96.148438 253.839844 96.40625 255.457031 96.03125 C 256.835938 95.710938 258.234375 94.992188 259.050781 93.933594 C 259.085938 93.890625 259.117188 93.847656 259.148438 93.800781 C 259.5625 93.25 259.863281 92.628906 259.996094 92.019531 C 260.140625 91.390625 260.144531 90.734375 260.003906 90.164062 C 259.863281 89.570312 259.570312 89.003906 259.191406 88.59375 C 258.796875 88.15625 258.265625 87.816406 257.742188 87.664062 C 257.210938 87.5 256.59375 87.496094 256.058594 87.632812 C 255.457031 87.777344 254.878906 88.125 254.453125 88.550781 C 253.9375 89.050781 253.585938 89.71875 253.40625 90.355469 C 253.277344 90.804688 253.230469 91.261719 253.226562 91.683594 C 253.222656 92.105469 253.261719 92.492188 253.308594 92.832031 C 253.503906 93.78125 253.46875 94.375 253.171875 94.550781 C 252.875 94.726562 252.339844 94.464844 251.613281 93.828125 C 251.269531 93.5 250.910156 93.046875 250.609375 92.449219 C 250.308594 91.851562 250.0625 91.109375 249.980469 90.234375 C 249.867188 88.996094 250.082031 87.519531 250.894531 86.089844 C 251.582031 84.894531 252.660156 83.785156 254.132812 83.050781 C 255.445312 82.402344 257.007812 82.089844 258.652344 82.296875 C 260.257812 82.507812 261.832031 83.1875 263.140625 84.339844 C 264.355469 85.417969 265.292969 86.832031 265.800781 88.453125 C 266.28125 89.996094 266.378906 91.65625 266.058594 93.277344 C 265.746094 94.832031 265.089844 96.308594 264.125 97.582031 C 264.046875 97.679688 263.96875 97.78125 263.886719 97.878906 C 261.90625 100.269531 259.191406 101.644531 256.488281 102.03125 C 253.421875 102.464844 250.589844 101.828125 248.320312 100.710938 C 246.835938 99.992188 245.5625 99.082031 244.511719 98.101562 C 243.460938 97.117188 242.632812 96.058594 242 95.019531 C 241.316406 93.890625 240.875 92.796875 240.597656 91.816406 C 240.320312 90.835938 240.210938 89.972656 240.199219 89.265625 C 240.1875 88.558594 240.273438 88.011719 240.40625 87.636719 C 240.535156 87.265625 240.714844 87.066406 240.914062 87.039062 Z M 240.914062 87.039062" fill-rule="evenodd"/><path fill="#333" d="M 210.988281 99.003906 C 211.152344 98.683594 211.710938 98.589844 212.589844 98.660156 C 213.472656 98.730469 214.671875 98.960938 216.136719 99.257812 C 219.074219 99.847656 223.09375 100.695312 227.738281 101.070312 C 229.632812 101.226562 231.636719 101.308594 233.71875 101.304688 C 239.1875 101.296875 244.320312 100.757812 248.359375 100.445312 C 250.890625 100.246094 252.984375 100.121094 254.484375 100.167969 C 255.984375 100.214844 256.886719 100.4375 257.011719 100.898438 C 257.136719 101.363281 256.464844 102.023438 255.128906 102.773438 C 253.792969 103.523438 251.789062 104.363281 249.273438 105.148438 C 247.261719 105.777344 244.902344 106.375 242.277344 106.820312 C 239.65625 107.265625 236.765625 107.554688 233.722656 107.554688 C 231.40625 107.554688 229.148438 107.382812 227.019531 107.054688 C 224.410156 106.648438 222.023438 106.003906 219.953125 105.25 C 217.882812 104.496094 216.128906 103.636719 214.746094 102.804688 C 213.359375 101.972656 212.335938 101.171875 211.703125 100.507812 C 211.070312 99.84375 210.824219 99.320312 210.988281 99.003906 Z M 210.988281 99.003906" fill-rule="evenodd"/></svg>