<svg xmlns="http://www.w3.org/2000/svg" xmlns:xlink="http://www.w3.org/1999/xlink" width="150" zoomAndPan="magnify" viewBox="0 0 112.5 112.499997" height="150" preserveAspectRatio="xMidYMid meet" version="1.0"><defs><clipPath id="id1"><path d="M 14 43 L 93 43 L 93 106.636719 L 14 106.636719 Z M 14 43 " clip-rule="nonzero"/></clipPath><clipPath id="id2"><path d="M 10.523438 25 L 31 25 L 31 55 L 10.523438 55 Z M 10.523438 25 " clip-rule="nonzero"/></clipPath><clipPath id="id3"><path d="M 30 6.136719 L 55 6.136719 L 55 41 L 30 41 Z M 30 6.136719 " clip-rule="nonzero"/></clipPath></defs><path fill="rgb(100%, 100%, 100%)" d="M 73.132812 105.769531 C 69.453125 105.769531 67.421875 103.765625 65.066406 101.441406 C 62.4375 98.851562 59.464844 95.917969 53.753906 95.917969 C 47.929688 95.917969 44.523438 97.09375 41.519531 98.128906 C 39.175781 98.933594 37.152344 99.632812 34.371094 99.632812 C 24.160156 99.632812 15.851562 90.460938 15.851562 79.1875 C 15.851562 72.832031 21.148438 69.578125 26.273438 66.429688 C 30.195312 64.019531 33.902344 61.746094 35.179688 58.171875 C 37.851562 50.710938 47.574219 44.3125 56.410156 44.199219 L 56.582031 44.199219 C 62.675781 44.199219 67.527344 48.257812 70.527344 51.667969 C 74.585938 56.28125 77.074219 61.683594 78.054688 65.203125 C 79.132812 69.097656 82.085938 71.761719 84.9375 74.335938 C 88.390625 77.457031 91.65625 80.398438 91.65625 85.324219 C 91.65625 96.601562 83.347656 105.769531 73.132812 105.769531 " fill-opacity="1" fill-rule="nonzero"/><g clip-path="url(#id1)"><path fill="rgb(87.059021%, 38.819885%, 60.389709%)" d="M 56.582031 43.339844 C 56.523438 43.339844 56.460938 43.339844 56.398438 43.339844 C 47.363281 43.453125 37.179688 50.039062 34.371094 57.882812 C 31.5625 65.726562 14.992188 67.421875 14.992188 79.1875 C 14.992188 90.953125 23.667969 100.492188 34.371094 100.492188 C 40.945312 100.492188 43.519531 96.78125 53.753906 96.78125 C 63.984375 96.78125 64.671875 106.632812 73.132812 106.632812 C 83.835938 106.632812 92.515625 97.09375 92.515625 85.324219 C 92.515625 75.761719 81.160156 73.175781 78.882812 64.972656 C 76.617188 56.816406 68.015625 43.339844 56.582031 43.339844 Z M 56.582031 45.058594 C 62.355469 45.058594 67 48.960938 69.882812 52.234375 C 73.84375 56.738281 76.273438 62.007812 77.226562 65.433594 C 78.375 69.566406 81.417969 72.316406 84.363281 74.976562 C 87.816406 78.09375 90.796875 80.785156 90.796875 85.324219 C 90.796875 96.125 82.871094 104.910156 73.132812 104.910156 C 69.804688 104.910156 67.980469 103.109375 65.667969 100.828125 C 62.925781 98.125 59.816406 95.058594 53.753906 95.058594 C 47.785156 95.058594 44.308594 96.257812 41.238281 97.3125 C 38.96875 98.097656 37.011719 98.769531 34.371094 98.769531 C 24.632812 98.769531 16.707031 89.984375 16.707031 79.1875 C 16.707031 73.316406 21.574219 70.328125 26.722656 67.164062 C 30.777344 64.671875 34.609375 62.320312 35.988281 58.464844 C 37.195312 55.089844 40.113281 51.699219 43.988281 49.152344 C 47.878906 46.605469 52.410156 45.113281 56.421875 45.058594 C 56.476562 45.058594 56.527344 45.058594 56.582031 45.058594 " fill-opacity="1" fill-rule="nonzero"/></g><path fill="rgb(100%, 100%, 100%)" d="M 20.574219 53.671875 C 14.910156 53.671875 11.527344 49.671875 11.527344 42.976562 C 11.527344 35.5625 15.703125 26.503906 20.574219 26.503906 C 25.449219 26.503906 29.625 35.5625 29.625 42.976562 C 29.625 49.671875 26.242188 53.671875 20.574219 53.671875 " fill-opacity="1" fill-rule="nonzero"/><g clip-path="url(#id2)"><path fill="rgb(87.059021%, 38.819885%, 60.389709%)" d="M 20.574219 25.644531 C 15.105469 25.644531 10.667969 35 10.667969 42.976562 C 10.667969 50.953125 15.105469 54.53125 20.574219 54.53125 C 26.046875 54.53125 30.484375 50.953125 30.484375 42.976562 C 30.484375 35 26.046875 25.644531 20.574219 25.644531 Z M 20.574219 27.363281 C 24.554688 27.363281 28.765625 35.390625 28.765625 42.976562 C 28.765625 49.226562 25.78125 52.808594 20.574219 52.808594 C 15.371094 52.808594 12.386719 49.226562 12.386719 42.976562 C 12.386719 35.390625 16.59375 27.363281 20.574219 27.363281 " fill-opacity="1" fill-rule="nonzero"/></g><path fill="rgb(100%, 100%, 100%)" d="M 89.246094 63.15625 C 88.019531 63.15625 86.746094 62.882812 85.472656 62.339844 C 80.253906 60.117188 78.703125 55.109375 81.316406 48.949219 C 84.015625 42.585938 90.121094 37.003906 94.382812 37.003906 C 94.988281 37.003906 95.558594 37.117188 96.074219 37.335938 C 100.558594 39.246094 100.867188 49.21875 97.972656 56.042969 C 96.027344 60.632812 92.925781 63.15625 89.246094 63.15625 " fill-opacity="1" fill-rule="nonzero"/><path fill="rgb(87.059021%, 38.819885%, 60.389709%)" d="M 94.382812 36.144531 C 89.488281 36.144531 83.246094 42.199219 80.527344 48.609375 C 77.414062 55.953125 80.097656 60.984375 85.132812 63.128906 C 86.492188 63.707031 87.882812 64.019531 89.246094 64.019531 C 92.953125 64.019531 96.488281 61.742188 98.761719 56.378906 C 101.875 49.039062 101.445312 38.691406 96.410156 36.542969 C 95.773438 36.273438 95.09375 36.144531 94.382812 36.144531 Z M 94.382812 37.867188 C 94.875 37.867188 95.332031 37.957031 95.738281 38.128906 C 99.398438 39.6875 100.140625 48.726562 97.179688 55.707031 C 95.351562 60.019531 92.609375 62.296875 89.246094 62.296875 C 88.132812 62.296875 86.976562 62.042969 85.804688 61.546875 C 81.015625 59.503906 79.667969 55.035156 82.109375 49.285156 C 84.6875 43.203125 90.421875 37.867188 94.382812 37.867188 " fill-opacity="1" fill-rule="nonzero"/><path fill="rgb(100%, 100%, 100%)" d="M 42.554688 39.226562 C 35.800781 39.226562 31.769531 34.472656 31.769531 26.507812 C 31.769531 22.039062 33.007812 17.074219 35.078125 13.21875 C 37.199219 9.269531 39.925781 7.003906 42.554688 7.003906 C 45.179688 7.003906 47.90625 9.269531 50.027344 13.21875 C 52.097656 17.074219 53.335938 22.039062 53.335938 26.507812 C 53.335938 34.472656 49.304688 39.226562 42.554688 39.226562 " fill-opacity="1" fill-rule="nonzero"/><g clip-path="url(#id3)"><path fill="rgb(87.059021%, 38.819885%, 60.389709%)" d="M 42.554688 6.144531 C 36.121094 6.144531 30.910156 17.136719 30.910156 26.507812 C 30.910156 35.882812 36.121094 40.085938 42.554688 40.085938 C 48.984375 40.085938 54.195312 35.882812 54.195312 26.507812 C 54.195312 17.136719 48.984375 6.144531 42.554688 6.144531 Z M 42.554688 7.863281 C 44.855469 7.863281 47.304688 9.964844 49.269531 13.628906 C 51.277344 17.359375 52.476562 22.175781 52.476562 26.507812 C 52.476562 30.449219 51.460938 33.601562 49.539062 35.628906 C 47.839844 37.417969 45.425781 38.367188 42.554688 38.367188 C 39.679688 38.367188 37.265625 37.417969 35.566406 35.628906 C 33.644531 33.601562 32.628906 30.449219 32.628906 26.507812 C 32.628906 22.175781 33.828125 17.359375 35.832031 13.628906 C 37.800781 9.964844 40.25 7.863281 42.554688 7.863281 " fill-opacity="1" fill-rule="nonzero"/></g><path fill="rgb(100%, 100%, 100%)" d="M 68.972656 41.707031 C 68.242188 41.707031 67.484375 41.636719 66.722656 41.5 C 60.078125 40.296875 56.953125 34.902344 58.359375 27.066406 C 59.964844 18.144531 66.378906 9.710938 71.5625 9.710938 C 71.851562 9.710938 72.140625 9.734375 72.425781 9.789062 C 75.011719 10.253906 77.289062 12.96875 78.679688 17.234375 C 80.039062 21.394531 80.375 26.503906 79.585938 30.902344 C 78.347656 37.769531 74.480469 41.707031 68.972656 41.707031 " fill-opacity="1" fill-rule="nonzero"/><path fill="rgb(87.059021%, 38.819885%, 60.389709%)" d="M 71.5625 8.847656 C 65.511719 8.851562 59.085938 18.179688 57.515625 26.914062 C 55.855469 36.136719 60.242188 41.203125 66.566406 42.34375 C 67.378906 42.492188 68.183594 42.566406 68.972656 42.566406 C 74.332031 42.566406 78.984375 39.09375 80.429688 31.054688 C 82.085938 21.828125 78.902344 10.085938 72.578125 8.941406 C 72.238281 8.878906 71.902344 8.847656 71.5625 8.847656 Z M 71.5625 8.847656 L 71.5625 10.570312 C 71.800781 10.570312 72.039062 10.59375 72.273438 10.632812 C 74.535156 11.042969 76.574219 13.546875 77.863281 17.5 C 79.179688 21.53125 79.503906 26.484375 78.738281 30.746094 C 77.566406 37.257812 74.097656 40.84375 68.972656 40.84375 C 68.292969 40.84375 67.585938 40.78125 66.875 40.652344 C 64.046875 40.140625 61.835938 38.777344 60.484375 36.714844 C 58.949219 34.378906 58.507812 31.09375 59.207031 27.21875 C 59.925781 23.21875 61.804688 18.890625 64.234375 15.640625 C 66.640625 12.417969 69.3125 10.570312 71.5625 10.570312 L 71.5625 8.847656 " fill-opacity="1" fill-rule="nonzero"/></svg>